<svg width="52" height="24" viewBox="0 0 52 24" fill="none" xmlns="http://www.w3.org/2000/svg" class="fill-red-500 stroke-red-500">
<rect x="0.5" y="0.5" width="23" height="23" rx="3.5" fill="currentColor"/>
<path d="M8.38991 18.2614C7.93916 18.2614 7.52628 18.1515 7.15128 17.9318C6.77628 17.7083 6.47704 17.4091 6.25355 17.0341C6.03385 16.6591 5.92401 16.2462 5.92401 15.7955C5.92401 15.3409 6.03385 14.9261 6.25355 14.5511C6.47704 14.1761 6.77628 13.8769 7.15128 13.6534C7.52628 13.4299 7.93916 13.3182 8.38991 13.3182H9.7081V11.0341H8.38991C7.93916 11.0341 7.52628 10.9242 7.15128 10.7045C6.77628 10.4811 6.47704 10.1837 6.25355 9.8125C6.03385 9.4375 5.92401 9.02273 5.92401 8.56818C5.92401 8.11364 6.03385 7.70076 6.25355 7.32955C6.47704 6.95455 6.77628 6.6572 7.15128 6.4375C7.52628 6.21401 7.93916 6.10227 8.38991 6.10227C8.84446 6.10227 9.25923 6.21401 9.63423 6.4375C10.0092 6.6572 10.3085 6.95455 10.532 7.32955C10.7554 7.70076 10.8672 8.11364 10.8672 8.56818V9.875H13.1513V8.56818C13.1513 8.11364 13.2611 7.70076 13.4808 7.32955C13.7043 6.95455 14.0017 6.6572 14.3729 6.4375C14.7479 6.21401 15.1626 6.10227 15.6172 6.10227C16.0717 6.10227 16.4846 6.21401 16.8558 6.4375C17.2308 6.6572 17.5282 6.95455 17.7479 7.32955C17.9714 7.70076 18.0831 8.11364 18.0831 8.56818C18.0831 9.02273 17.9714 9.4375 17.7479 9.8125C17.5282 10.1837 17.2308 10.4811 16.8558 10.7045C16.4846 10.9242 16.0717 11.0341 15.6172 11.0341H14.3104V13.3182H15.6172C16.0717 13.3182 16.4846 13.4299 16.8558 13.6534C17.2308 13.8769 17.5282 14.1761 17.7479 14.5511C17.9714 14.9261 18.0831 15.3409 18.0831 15.7955C18.0831 16.2462 17.9714 16.6591 17.7479 17.0341C17.5282 17.4091 17.2308 17.7083 16.8558 17.9318C16.4846 18.1515 16.0717 18.2614 15.6172 18.2614C15.1626 18.2614 14.7479 18.1515 14.3729 17.9318C14.0017 17.7083 13.7043 17.4091 13.4808 17.0341C13.2611 16.6591 13.1513 16.2462 13.1513 15.7955V14.4773H10.8672V15.7955C10.8672 16.2462 10.7554 16.6591 10.532 17.0341C10.3085 17.4091 10.0092 17.7083 9.63423 17.9318C9.25923 18.1515 8.84446 18.2614 8.38991 18.2614ZM8.38991 17.1023C8.63234 17.1023 8.85204 17.0436 9.04901 16.9261C9.24976 16.8087 9.40885 16.6515 9.52628 16.4545C9.64749 16.2538 9.7081 16.0341 9.7081 15.7955V14.4773H8.38991C8.15128 14.4773 7.93158 14.5379 7.73082 14.6591C7.53385 14.7765 7.37666 14.9356 7.25923 15.1364C7.14181 15.3333 7.0831 15.553 7.0831 15.7955C7.0831 16.0341 7.14181 16.2538 7.25923 16.4545C7.37666 16.6515 7.53385 16.8087 7.73082 16.9261C7.93158 17.0436 8.15128 17.1023 8.38991 17.1023ZM8.38991 9.875H9.7081V8.56818C9.7081 8.32576 9.64749 8.10606 9.52628 7.90909C9.40885 7.71212 9.24976 7.55492 9.04901 7.4375C8.85204 7.32008 8.63234 7.26136 8.38991 7.26136C8.15128 7.26136 7.93158 7.32008 7.73082 7.4375C7.53385 7.55492 7.37666 7.71212 7.25923 7.90909C7.14181 8.10606 7.0831 8.32576 7.0831 8.56818C7.0831 8.81061 7.14181 9.0322 7.25923 9.23295C7.37666 9.42992 7.53385 9.58712 7.73082 9.70455C7.93158 9.81818 8.15128 9.875 8.38991 9.875ZM14.3104 9.875H15.6172C15.8596 9.875 16.0793 9.81818 16.2763 9.70455C16.4732 9.58712 16.6304 9.42992 16.7479 9.23295C16.8653 9.0322 16.924 8.81061 16.924 8.56818C16.924 8.32576 16.8653 8.10606 16.7479 7.90909C16.6304 7.71212 16.4732 7.55492 16.2763 7.4375C16.0793 7.32008 15.8596 7.26136 15.6172 7.26136C15.3748 7.26136 15.1532 7.32008 14.9524 7.4375C14.7554 7.55492 14.5982 7.71212 14.4808 7.90909C14.3672 8.10606 14.3104 8.32576 14.3104 8.56818V9.875ZM15.6172 17.1023C15.8596 17.1023 16.0793 17.0436 16.2763 16.9261C16.4732 16.8087 16.6304 16.6515 16.7479 16.4545C16.8653 16.2538 16.924 16.0341 16.924 15.7955C16.924 15.553 16.8653 15.3333 16.7479 15.1364C16.6304 14.9356 16.4732 14.7765 16.2763 14.6591C16.0793 14.5379 15.8596 14.4773 15.6172 14.4773H14.3104V15.7955C14.3104 16.0341 14.3672 16.2538 14.4808 16.4545C14.5982 16.6515 14.7554 16.8087 14.9524 16.9261C15.1532 17.0436 15.3748 17.1023 15.6172 17.1023ZM10.8672 13.3182H13.1513V11.0341H10.8672V13.3182Z" fill="currentColor"/>
<rect x="0.5" y="0.5" width="23" height="23" rx="3.5" stroke="currentColor"/>
<rect x="28.5" y="0.5" width="23" height="23" rx="3.5" fill="currentColor" fill-opacity="0.5"/>
<path d="M36.6751 18V6.32H38.1151V11.328H39.8431L42.4351 6.32H44.0031L41.1071 11.936L44.1631 18H42.5151L39.7951 12.592H38.1151V18H36.6751Z" fill="currentColor"/>
<rect x="28.5" y="0.5" width="23" height="23" rx="3.5" stroke="currentColor"/>
</svg>
