<svg width="512" height="512" viewBox="0 0 512 512" fill="none" xmlns="http://www.w3.org/2000/svg">
<path d="M153.601 154.624C176.222 154.624 194.561 136.286 194.561 113.664C194.561 91.0425 176.222 72.7041 153.601 72.7041C130.979 72.7041 112.641 91.0425 112.641 113.664C112.641 136.286 130.979 154.624 153.601 154.624Z" fill="#14B8A6"/>
<path d="M153.601 439.296C176.222 439.296 194.561 420.958 194.561 398.336C194.561 375.714 176.222 357.376 153.601 357.376C130.979 357.376 112.641 375.714 112.641 398.336C112.641 420.958 130.979 439.296 153.601 439.296Z" fill="#14B8A6"/>
<path fill-rule="evenodd" clip-rule="evenodd" d="M389.883 87.3011C396.602 94.0221 400.377 103.136 400.377 112.64C400.377 122.144 396.602 131.258 389.883 137.979L271.862 256L389.883 374.021C396.412 380.78 400.024 389.834 399.943 399.231C399.861 408.628 396.092 417.617 389.447 424.263C382.801 430.907 373.813 434.677 364.415 434.759C355.018 434.839 345.965 431.228 339.206 424.699L195.846 281.339C189.127 274.618 185.352 265.504 185.352 256C185.352 246.496 189.127 237.382 195.846 230.661L339.206 87.3011C345.926 80.5821 355.041 76.8076 364.544 76.8076C374.048 76.8076 383.163 80.5821 389.883 87.3011Z" fill="#14B8A6"/>
</svg>
